<mxfile host="Electron" modified="2025-02-15T12:59:36.973Z" agent="Mozilla/5.0 (Windows NT 10.0; Win64; x64) AppleWebKit/537.36 (KHTML, like Gecko) draw.io/24.5.1 Chrome/124.0.6367.207 Electron/30.0.6 Safari/537.36" etag="qNWhp56ADTQQDFs6PDW3" version="24.5.1" type="device" pages="2">
  <diagram id="zkLWxr3Ve-KkZXWS_Odb" name="Docker">
    <mxGraphModel dx="1486" dy="1206" grid="1" gridSize="10" guides="1" tooltips="1" connect="1" arrows="1" fold="1" page="0" pageScale="1" pageWidth="850" pageHeight="1100" math="0" shadow="0">
      <root>
        <mxCell id="0" />
        <mxCell id="1" parent="0" />
        <mxCell id="SzCL9VDjmG3Q74IJDUDh-38" value="" style="rounded=1;whiteSpace=wrap;html=1;dashed=1;fillColor=none;arcSize=3;" parent="1" vertex="1">
          <mxGeometry x="20" y="-10" width="730" height="600" as="geometry" />
        </mxCell>
        <mxCell id="SzCL9VDjmG3Q74IJDUDh-3" value="" style="group" parent="1" vertex="1" connectable="0">
          <mxGeometry x="110" y="270" width="140" height="70" as="geometry" />
        </mxCell>
        <mxCell id="SzCL9VDjmG3Q74IJDUDh-1" value="template-gateway" style="rounded=0;whiteSpace=wrap;html=1;fillColor=#dae8fc;strokeColor=#6c8ebf;" parent="SzCL9VDjmG3Q74IJDUDh-3" vertex="1">
          <mxGeometry y="10" width="120" height="60" as="geometry" />
        </mxCell>
        <mxCell id="SzCL9VDjmG3Q74IJDUDh-2" value="8500" style="rounded=1;whiteSpace=wrap;html=1;fillColor=#ffff88;strokeColor=#36393d;" parent="SzCL9VDjmG3Q74IJDUDh-3" vertex="1">
          <mxGeometry x="80" width="60" height="20" as="geometry" />
        </mxCell>
        <mxCell id="SzCL9VDjmG3Q74IJDUDh-4" value="" style="group" parent="1" vertex="1" connectable="0">
          <mxGeometry x="360" y="290" width="140" height="70" as="geometry" />
        </mxCell>
        <mxCell id="SzCL9VDjmG3Q74IJDUDh-5" value="template-eureka" style="rounded=0;whiteSpace=wrap;html=1;fillColor=#dae8fc;strokeColor=#6c8ebf;" parent="SzCL9VDjmG3Q74IJDUDh-4" vertex="1">
          <mxGeometry y="10" width="120" height="60" as="geometry" />
        </mxCell>
        <mxCell id="SzCL9VDjmG3Q74IJDUDh-6" value="8400" style="rounded=1;whiteSpace=wrap;html=1;strokeColor=#36393d;fillColor=#E6FFCC;" parent="SzCL9VDjmG3Q74IJDUDh-4" vertex="1">
          <mxGeometry x="80" width="60" height="20" as="geometry" />
        </mxCell>
        <mxCell id="SzCL9VDjmG3Q74IJDUDh-7" value="" style="group" parent="1" vertex="1" connectable="0">
          <mxGeometry x="520" y="160" width="140" height="70" as="geometry" />
        </mxCell>
        <mxCell id="SzCL9VDjmG3Q74IJDUDh-8" value="template-auth-service" style="rounded=0;whiteSpace=wrap;html=1;fillColor=#dae8fc;strokeColor=#6c8ebf;" parent="SzCL9VDjmG3Q74IJDUDh-7" vertex="1">
          <mxGeometry y="10" width="120" height="60" as="geometry" />
        </mxCell>
        <mxCell id="SzCL9VDjmG3Q74IJDUDh-9" value="8410" style="rounded=1;whiteSpace=wrap;html=1;strokeColor=#36393d;fillColor=#E6FFCC;" parent="SzCL9VDjmG3Q74IJDUDh-7" vertex="1">
          <mxGeometry x="80" width="60" height="20" as="geometry" />
        </mxCell>
        <mxCell id="SzCL9VDjmG3Q74IJDUDh-10" value="" style="group" parent="1" vertex="1" connectable="0">
          <mxGeometry x="520" y="430" width="140" height="70" as="geometry" />
        </mxCell>
        <mxCell id="SzCL9VDjmG3Q74IJDUDh-11" value="template-scalable-service" style="rounded=0;whiteSpace=wrap;html=1;fillColor=#dae8fc;strokeColor=#6c8ebf;" parent="SzCL9VDjmG3Q74IJDUDh-10" vertex="1">
          <mxGeometry y="10" width="120" height="60" as="geometry" />
        </mxCell>
        <mxCell id="SzCL9VDjmG3Q74IJDUDh-12" value="8420" style="rounded=1;whiteSpace=wrap;html=1;strokeColor=#36393d;fillColor=#E6FFCC;" parent="SzCL9VDjmG3Q74IJDUDh-10" vertex="1">
          <mxGeometry x="80" width="60" height="20" as="geometry" />
        </mxCell>
        <mxCell id="SzCL9VDjmG3Q74IJDUDh-22" value="" style="group" parent="1" vertex="1" connectable="0">
          <mxGeometry x="550" y="460" width="140" height="70" as="geometry" />
        </mxCell>
        <mxCell id="SzCL9VDjmG3Q74IJDUDh-23" value="template-scalable-service" style="rounded=0;whiteSpace=wrap;html=1;fillColor=#dae8fc;strokeColor=#6c8ebf;" parent="SzCL9VDjmG3Q74IJDUDh-22" vertex="1">
          <mxGeometry y="10" width="120" height="60" as="geometry" />
        </mxCell>
        <mxCell id="SzCL9VDjmG3Q74IJDUDh-24" value="8430" style="rounded=1;whiteSpace=wrap;html=1;strokeColor=#36393d;fillColor=#E6FFCC;" parent="SzCL9VDjmG3Q74IJDUDh-22" vertex="1">
          <mxGeometry x="80" width="60" height="20" as="geometry" />
        </mxCell>
        <mxCell id="SzCL9VDjmG3Q74IJDUDh-25" value="" style="group" parent="1" vertex="1" connectable="0">
          <mxGeometry x="580" y="490" width="140" height="70" as="geometry" />
        </mxCell>
        <mxCell id="SzCL9VDjmG3Q74IJDUDh-26" value="template-scalable-service" style="rounded=0;whiteSpace=wrap;html=1;fillColor=#dae8fc;strokeColor=#6c8ebf;" parent="SzCL9VDjmG3Q74IJDUDh-25" vertex="1">
          <mxGeometry y="10" width="120" height="60" as="geometry" />
        </mxCell>
        <mxCell id="SzCL9VDjmG3Q74IJDUDh-27" value="8440" style="rounded=1;whiteSpace=wrap;html=1;strokeColor=#36393d;fillColor=#E6FFCC;" parent="SzCL9VDjmG3Q74IJDUDh-25" vertex="1">
          <mxGeometry x="80" width="60" height="20" as="geometry" />
        </mxCell>
        <mxCell id="SzCL9VDjmG3Q74IJDUDh-28" value="" style="endArrow=classic;html=1;entryX=0.5;entryY=1;entryDx=0;entryDy=0;" parent="1" source="SzCL9VDjmG3Q74IJDUDh-11" target="SzCL9VDjmG3Q74IJDUDh-8" edge="1">
          <mxGeometry width="50" height="50" relative="1" as="geometry">
            <mxPoint x="400" y="430" as="sourcePoint" />
            <mxPoint x="450" y="380" as="targetPoint" />
          </mxGeometry>
        </mxCell>
        <mxCell id="M8_rLOcpwuxy9JoNi_LB-5" value="HTTP" style="edgeLabel;html=1;align=center;verticalAlign=middle;resizable=0;points=[];" parent="SzCL9VDjmG3Q74IJDUDh-28" vertex="1" connectable="0">
          <mxGeometry x="0.1524" y="-2" relative="1" as="geometry">
            <mxPoint as="offset" />
          </mxGeometry>
        </mxCell>
        <mxCell id="SzCL9VDjmG3Q74IJDUDh-29" value="" style="endArrow=classic;html=1;entryX=0;entryY=0.5;entryDx=0;entryDy=0;exitX=1;exitY=0.25;exitDx=0;exitDy=0;" parent="1" source="SzCL9VDjmG3Q74IJDUDh-1" target="SzCL9VDjmG3Q74IJDUDh-8" edge="1">
          <mxGeometry width="50" height="50" relative="1" as="geometry">
            <mxPoint x="200" y="300" as="sourcePoint" />
            <mxPoint x="450" y="380" as="targetPoint" />
          </mxGeometry>
        </mxCell>
        <mxCell id="M8_rLOcpwuxy9JoNi_LB-2" value="HTTP" style="edgeLabel;html=1;align=center;verticalAlign=middle;resizable=0;points=[];" parent="SzCL9VDjmG3Q74IJDUDh-29" vertex="1" connectable="0">
          <mxGeometry x="-0.3678" y="-1" relative="1" as="geometry">
            <mxPoint as="offset" />
          </mxGeometry>
        </mxCell>
        <mxCell id="SzCL9VDjmG3Q74IJDUDh-30" value="" style="endArrow=classic;html=1;exitX=1;exitY=0.75;exitDx=0;exitDy=0;entryX=0;entryY=0.5;entryDx=0;entryDy=0;" parent="1" source="SzCL9VDjmG3Q74IJDUDh-1" target="SzCL9VDjmG3Q74IJDUDh-11" edge="1">
          <mxGeometry width="50" height="50" relative="1" as="geometry">
            <mxPoint x="400" y="430" as="sourcePoint" />
            <mxPoint x="450" y="380" as="targetPoint" />
          </mxGeometry>
        </mxCell>
        <mxCell id="M8_rLOcpwuxy9JoNi_LB-4" value="HTTP" style="edgeLabel;html=1;align=center;verticalAlign=middle;resizable=0;points=[];" parent="SzCL9VDjmG3Q74IJDUDh-30" vertex="1" connectable="0">
          <mxGeometry x="0.0786" y="-1" relative="1" as="geometry">
            <mxPoint as="offset" />
          </mxGeometry>
        </mxCell>
        <mxCell id="SzCL9VDjmG3Q74IJDUDh-31" value="" style="group" parent="1" vertex="1" connectable="0">
          <mxGeometry x="520" y="20" width="140" height="70" as="geometry" />
        </mxCell>
        <mxCell id="SzCL9VDjmG3Q74IJDUDh-32" value="ldap" style="rounded=0;whiteSpace=wrap;html=1;fillColor=#dae8fc;strokeColor=#6c8ebf;" parent="SzCL9VDjmG3Q74IJDUDh-31" vertex="1">
          <mxGeometry y="10" width="120" height="60" as="geometry" />
        </mxCell>
        <mxCell id="SzCL9VDjmG3Q74IJDUDh-33" value="10389" style="rounded=1;whiteSpace=wrap;html=1;strokeColor=#36393d;fillColor=#E6FFCC;" parent="SzCL9VDjmG3Q74IJDUDh-31" vertex="1">
          <mxGeometry x="80" width="60" height="20" as="geometry" />
        </mxCell>
        <mxCell id="SzCL9VDjmG3Q74IJDUDh-34" value="" style="endArrow=classic;html=1;entryX=0.5;entryY=1;entryDx=0;entryDy=0;exitX=0.5;exitY=0;exitDx=0;exitDy=0;" parent="1" source="SzCL9VDjmG3Q74IJDUDh-8" target="SzCL9VDjmG3Q74IJDUDh-32" edge="1">
          <mxGeometry width="50" height="50" relative="1" as="geometry">
            <mxPoint x="400" y="430" as="sourcePoint" />
            <mxPoint x="450" y="380" as="targetPoint" />
          </mxGeometry>
        </mxCell>
        <mxCell id="SzCL9VDjmG3Q74IJDUDh-35" value="" style="endArrow=classic;html=1;entryX=0.5;entryY=0;entryDx=0;entryDy=0;exitX=0;exitY=0.75;exitDx=0;exitDy=0;" parent="1" source="SzCL9VDjmG3Q74IJDUDh-8" target="SzCL9VDjmG3Q74IJDUDh-5" edge="1">
          <mxGeometry width="50" height="50" relative="1" as="geometry">
            <mxPoint x="400" y="430" as="sourcePoint" />
            <mxPoint x="450" y="380" as="targetPoint" />
          </mxGeometry>
        </mxCell>
        <mxCell id="SzCL9VDjmG3Q74IJDUDh-36" value="" style="endArrow=classic;html=1;entryX=0.5;entryY=1;entryDx=0;entryDy=0;exitX=0.25;exitY=0;exitDx=0;exitDy=0;" parent="1" source="SzCL9VDjmG3Q74IJDUDh-11" target="SzCL9VDjmG3Q74IJDUDh-5" edge="1">
          <mxGeometry width="50" height="50" relative="1" as="geometry">
            <mxPoint x="400" y="430" as="sourcePoint" />
            <mxPoint x="450" y="380" as="targetPoint" />
          </mxGeometry>
        </mxCell>
        <mxCell id="M8_rLOcpwuxy9JoNi_LB-6" value="HTTP" style="edgeLabel;html=1;align=center;verticalAlign=middle;resizable=0;points=[];" parent="SzCL9VDjmG3Q74IJDUDh-36" vertex="1" connectable="0">
          <mxGeometry x="-0.1459" y="-1" relative="1" as="geometry">
            <mxPoint as="offset" />
          </mxGeometry>
        </mxCell>
        <mxCell id="SzCL9VDjmG3Q74IJDUDh-37" value="" style="endArrow=classic;html=1;entryX=0;entryY=0.5;entryDx=0;entryDy=0;exitX=1;exitY=0.5;exitDx=0;exitDy=0;" parent="1" source="SzCL9VDjmG3Q74IJDUDh-1" target="SzCL9VDjmG3Q74IJDUDh-5" edge="1">
          <mxGeometry width="50" height="50" relative="1" as="geometry">
            <mxPoint x="400" y="430" as="sourcePoint" />
            <mxPoint x="450" y="380" as="targetPoint" />
          </mxGeometry>
        </mxCell>
        <mxCell id="M8_rLOcpwuxy9JoNi_LB-3" value="HTTP" style="edgeLabel;html=1;align=center;verticalAlign=middle;resizable=0;points=[];" parent="SzCL9VDjmG3Q74IJDUDh-37" vertex="1" connectable="0">
          <mxGeometry x="0.1653" y="2" relative="1" as="geometry">
            <mxPoint as="offset" />
          </mxGeometry>
        </mxCell>
        <mxCell id="SzCL9VDjmG3Q74IJDUDh-40" value="performance-tester" style="rounded=0;whiteSpace=wrap;html=1;fillColor=#dae8fc;strokeColor=#6c8ebf;" parent="1" vertex="1">
          <mxGeometry x="-150" y="280" width="120" height="60" as="geometry" />
        </mxCell>
        <mxCell id="SzCL9VDjmG3Q74IJDUDh-42" value="" style="endArrow=classic;html=1;exitX=1;exitY=0.5;exitDx=0;exitDy=0;entryX=0;entryY=0.5;entryDx=0;entryDy=0;" parent="1" source="SzCL9VDjmG3Q74IJDUDh-40" target="SzCL9VDjmG3Q74IJDUDh-1" edge="1">
          <mxGeometry width="50" height="50" relative="1" as="geometry">
            <mxPoint x="330" y="330" as="sourcePoint" />
            <mxPoint x="380" y="280" as="targetPoint" />
          </mxGeometry>
        </mxCell>
        <mxCell id="M8_rLOcpwuxy9JoNi_LB-1" value="HTTPS" style="edgeLabel;html=1;align=center;verticalAlign=middle;resizable=0;points=[];" parent="SzCL9VDjmG3Q74IJDUDh-42" vertex="1" connectable="0">
          <mxGeometry x="0.3167" y="1" relative="1" as="geometry">
            <mxPoint y="1" as="offset" />
          </mxGeometry>
        </mxCell>
        <mxCell id="SzCL9VDjmG3Q74IJDUDh-43" value="Docker" style="text;html=1;strokeColor=none;fillColor=none;align=center;verticalAlign=middle;whiteSpace=wrap;rounded=0;dashed=1;fontSize=17;" parent="1" vertex="1">
          <mxGeometry x="40" width="100" height="40" as="geometry" />
        </mxCell>
        <mxCell id="M8_rLOcpwuxy9JoNi_LB-7" value="" style="rounded=1;whiteSpace=wrap;html=1;fillColor=#ffff88;strokeColor=#36393d;" parent="1" vertex="1">
          <mxGeometry x="80" y="480" width="60" height="20" as="geometry" />
        </mxCell>
        <mxCell id="M8_rLOcpwuxy9JoNi_LB-8" value="Exposed port" style="text;html=1;strokeColor=none;fillColor=none;align=left;verticalAlign=middle;whiteSpace=wrap;rounded=0;" parent="1" vertex="1">
          <mxGeometry x="150" y="480" width="100" height="20" as="geometry" />
        </mxCell>
        <mxCell id="M8_rLOcpwuxy9JoNi_LB-9" value="" style="rounded=1;whiteSpace=wrap;html=1;strokeColor=#36393d;fillColor=#E6FFCC;" parent="1" vertex="1">
          <mxGeometry x="80" y="520" width="60" height="20" as="geometry" />
        </mxCell>
        <mxCell id="M8_rLOcpwuxy9JoNi_LB-10" value="Not exposed port" style="text;html=1;strokeColor=none;fillColor=none;align=left;verticalAlign=middle;whiteSpace=wrap;rounded=0;" parent="1" vertex="1">
          <mxGeometry x="150" y="520" width="100" height="20" as="geometry" />
        </mxCell>
      </root>
    </mxGraphModel>
  </diagram>
  <diagram name="K8s" id="A74nftYlvzB3GKPRh5p6">
    <mxGraphModel dx="1830" dy="1230" grid="1" gridSize="10" guides="1" tooltips="1" connect="1" arrows="1" fold="1" page="0" pageScale="1" pageWidth="850" pageHeight="1100" math="0" shadow="0">
      <root>
        <mxCell id="duQ5a-z2jA8PVYuKpQVg-0" />
        <mxCell id="duQ5a-z2jA8PVYuKpQVg-1" parent="duQ5a-z2jA8PVYuKpQVg-0" />
        <mxCell id="duQ5a-z2jA8PVYuKpQVg-2" value="" style="rounded=1;whiteSpace=wrap;html=1;dashed=1;fillColor=none;arcSize=3;" parent="duQ5a-z2jA8PVYuKpQVg-1" vertex="1">
          <mxGeometry x="330" y="-20" width="470" height="530" as="geometry" />
        </mxCell>
        <mxCell id="duQ5a-z2jA8PVYuKpQVg-21" value="" style="endArrow=classic;html=1;entryX=0.5;entryY=1;entryDx=0;entryDy=0;" parent="duQ5a-z2jA8PVYuKpQVg-1" source="duQ5a-z2jA8PVYuKpQVg-13" target="duQ5a-z2jA8PVYuKpQVg-10" edge="1">
          <mxGeometry width="50" height="50" relative="1" as="geometry">
            <mxPoint x="400" y="430" as="sourcePoint" />
            <mxPoint x="450" y="380" as="targetPoint" />
          </mxGeometry>
        </mxCell>
        <mxCell id="duQ5a-z2jA8PVYuKpQVg-22" value="HTTP" style="edgeLabel;html=1;align=center;verticalAlign=middle;resizable=0;points=[];" parent="duQ5a-z2jA8PVYuKpQVg-21" vertex="1" connectable="0">
          <mxGeometry x="0.1524" y="-2" relative="1" as="geometry">
            <mxPoint as="offset" />
          </mxGeometry>
        </mxCell>
        <mxCell id="duQ5a-z2jA8PVYuKpQVg-23" value="" style="endArrow=classic;html=1;entryX=0;entryY=0.5;entryDx=0;entryDy=0;exitX=1;exitY=0.25;exitDx=0;exitDy=0;" parent="duQ5a-z2jA8PVYuKpQVg-1" source="duQ5a-z2jA8PVYuKpQVg-4" target="duQ5a-z2jA8PVYuKpQVg-10" edge="1">
          <mxGeometry width="50" height="50" relative="1" as="geometry">
            <mxPoint x="200" y="300" as="sourcePoint" />
            <mxPoint x="450" y="380" as="targetPoint" />
          </mxGeometry>
        </mxCell>
        <mxCell id="duQ5a-z2jA8PVYuKpQVg-24" value="HTTP" style="edgeLabel;html=1;align=center;verticalAlign=middle;resizable=0;points=[];" parent="duQ5a-z2jA8PVYuKpQVg-23" vertex="1" connectable="0">
          <mxGeometry x="-0.3678" y="-1" relative="1" as="geometry">
            <mxPoint x="18.41" y="-15.32" as="offset" />
          </mxGeometry>
        </mxCell>
        <mxCell id="duQ5a-z2jA8PVYuKpQVg-25" value="" style="endArrow=classic;html=1;exitX=1;exitY=0.75;exitDx=0;exitDy=0;entryX=0;entryY=0.5;entryDx=0;entryDy=0;" parent="duQ5a-z2jA8PVYuKpQVg-1" source="duQ5a-z2jA8PVYuKpQVg-4" target="duQ5a-z2jA8PVYuKpQVg-13" edge="1">
          <mxGeometry width="50" height="50" relative="1" as="geometry">
            <mxPoint x="400" y="430" as="sourcePoint" />
            <mxPoint x="450" y="380" as="targetPoint" />
          </mxGeometry>
        </mxCell>
        <mxCell id="duQ5a-z2jA8PVYuKpQVg-26" value="HTTP" style="edgeLabel;html=1;align=center;verticalAlign=middle;resizable=0;points=[];" parent="duQ5a-z2jA8PVYuKpQVg-25" vertex="1" connectable="0">
          <mxGeometry x="0.0786" y="-1" relative="1" as="geometry">
            <mxPoint as="offset" />
          </mxGeometry>
        </mxCell>
        <mxCell id="duQ5a-z2jA8PVYuKpQVg-30" value="" style="endArrow=classic;html=1;entryX=0.5;entryY=1;entryDx=0;entryDy=0;exitX=0.5;exitY=0;exitDx=0;exitDy=0;" parent="duQ5a-z2jA8PVYuKpQVg-1" source="duQ5a-z2jA8PVYuKpQVg-10" target="duQ5a-z2jA8PVYuKpQVg-28" edge="1">
          <mxGeometry width="50" height="50" relative="1" as="geometry">
            <mxPoint x="400" y="430" as="sourcePoint" />
            <mxPoint x="450" y="380" as="targetPoint" />
          </mxGeometry>
        </mxCell>
        <mxCell id="duQ5a-z2jA8PVYuKpQVg-36" value="JMeter" style="rounded=0;whiteSpace=wrap;html=1;fillColor=#dae8fc;strokeColor=#6c8ebf;" parent="duQ5a-z2jA8PVYuKpQVg-1" vertex="1">
          <mxGeometry x="40" y="300" width="120" height="60" as="geometry" />
        </mxCell>
        <mxCell id="duQ5a-z2jA8PVYuKpQVg-37" value="" style="endArrow=classic;html=1;exitX=1;exitY=0.5;exitDx=0;exitDy=0;entryX=0;entryY=0.75;entryDx=0;entryDy=0;" parent="duQ5a-z2jA8PVYuKpQVg-1" source="duQ5a-z2jA8PVYuKpQVg-36" target="duQ5a-z2jA8PVYuKpQVg-4" edge="1">
          <mxGeometry width="50" height="50" relative="1" as="geometry">
            <mxPoint x="330" y="330" as="sourcePoint" />
            <mxPoint x="380" y="280" as="targetPoint" />
          </mxGeometry>
        </mxCell>
        <mxCell id="duQ5a-z2jA8PVYuKpQVg-38" value="HTTPS" style="edgeLabel;html=1;align=center;verticalAlign=middle;resizable=0;points=[];" parent="duQ5a-z2jA8PVYuKpQVg-37" vertex="1" connectable="0">
          <mxGeometry x="0.3167" y="1" relative="1" as="geometry">
            <mxPoint x="-11.96" y="3.95" as="offset" />
          </mxGeometry>
        </mxCell>
        <mxCell id="duQ5a-z2jA8PVYuKpQVg-39" value="Kubernetes (namespace: wstemplate)" style="text;html=1;strokeColor=none;fillColor=none;align=left;verticalAlign=middle;whiteSpace=wrap;rounded=0;dashed=1;fontSize=17;" parent="duQ5a-z2jA8PVYuKpQVg-1" vertex="1">
          <mxGeometry x="340" y="-20" width="320" height="40" as="geometry" />
        </mxCell>
        <mxCell id="duQ5a-z2jA8PVYuKpQVg-28" value="ldap" style="rounded=0;whiteSpace=wrap;html=1;fillColor=#dae8fc;strokeColor=#6c8ebf;" parent="duQ5a-z2jA8PVYuKpQVg-1" vertex="1">
          <mxGeometry x="520" y="40" width="120" height="60" as="geometry" />
        </mxCell>
        <mxCell id="duQ5a-z2jA8PVYuKpQVg-10" value="auth-service" style="rounded=0;whiteSpace=wrap;html=1;fillColor=#dae8fc;strokeColor=#6c8ebf;" parent="duQ5a-z2jA8PVYuKpQVg-1" vertex="1">
          <mxGeometry x="520" y="170" width="120" height="60" as="geometry" />
        </mxCell>
        <mxCell id="duQ5a-z2jA8PVYuKpQVg-4" value="nginx&lt;br&gt;(api gateway)" style="rounded=0;whiteSpace=wrap;html=1;fillColor=#dae8fc;strokeColor=#6c8ebf;" parent="duQ5a-z2jA8PVYuKpQVg-1" vertex="1">
          <mxGeometry x="270" y="250" width="120" height="60" as="geometry" />
        </mxCell>
        <mxCell id="duQ5a-z2jA8PVYuKpQVg-13" value="scalable-service" style="rounded=0;whiteSpace=wrap;html=1;fillColor=#dae8fc;strokeColor=#6c8ebf;" parent="duQ5a-z2jA8PVYuKpQVg-1" vertex="1">
          <mxGeometry x="520" y="350" width="120" height="60" as="geometry" />
        </mxCell>
        <mxCell id="duQ5a-z2jA8PVYuKpQVg-16" value="scalable-service" style="rounded=0;whiteSpace=wrap;html=1;fillColor=#dae8fc;strokeColor=#6c8ebf;" parent="duQ5a-z2jA8PVYuKpQVg-1" vertex="1">
          <mxGeometry x="550" y="380" width="120" height="60" as="geometry" />
        </mxCell>
        <mxCell id="duQ5a-z2jA8PVYuKpQVg-19" value="scalable-service" style="rounded=0;whiteSpace=wrap;html=1;fillColor=#dae8fc;strokeColor=#6c8ebf;" parent="duQ5a-z2jA8PVYuKpQVg-1" vertex="1">
          <mxGeometry x="580" y="410" width="120" height="60" as="geometry" />
        </mxCell>
        <mxCell id="duQ5a-z2jA8PVYuKpQVg-44" value="" style="shape=cylinder3;whiteSpace=wrap;html=1;boundedLbl=1;backgroundOutline=1;size=6;align=left;fillColor=#dae8fc;strokeColor=#6c8ebf;" parent="duQ5a-z2jA8PVYuKpQVg-1" vertex="1">
          <mxGeometry x="710" y="170" width="50" height="60" as="geometry" />
        </mxCell>
        <mxCell id="duQ5a-z2jA8PVYuKpQVg-45" value="" style="endArrow=classic;html=1;entryX=0;entryY=0.5;entryDx=0;entryDy=0;entryPerimeter=0;exitX=1;exitY=0.5;exitDx=0;exitDy=0;" parent="duQ5a-z2jA8PVYuKpQVg-1" source="duQ5a-z2jA8PVYuKpQVg-10" target="duQ5a-z2jA8PVYuKpQVg-44" edge="1">
          <mxGeometry width="50" height="50" relative="1" as="geometry">
            <mxPoint x="440" y="340" as="sourcePoint" />
            <mxPoint x="490" y="290" as="targetPoint" />
          </mxGeometry>
        </mxCell>
        <mxCell id="duQ5a-z2jA8PVYuKpQVg-46" value="browser" style="rounded=0;whiteSpace=wrap;html=1;fillColor=#dae8fc;strokeColor=#6c8ebf;" parent="duQ5a-z2jA8PVYuKpQVg-1" vertex="1">
          <mxGeometry x="40" y="190" width="120" height="60" as="geometry" />
        </mxCell>
        <mxCell id="duQ5a-z2jA8PVYuKpQVg-48" value="HTTPS" style="endArrow=classic;html=1;exitX=1;exitY=0.5;exitDx=0;exitDy=0;entryX=0;entryY=0.25;entryDx=0;entryDy=0;" parent="duQ5a-z2jA8PVYuKpQVg-1" source="duQ5a-z2jA8PVYuKpQVg-46" target="duQ5a-z2jA8PVYuKpQVg-4" edge="1">
          <mxGeometry width="50" height="50" relative="1" as="geometry">
            <mxPoint x="400" y="360" as="sourcePoint" />
            <mxPoint x="450" y="310" as="targetPoint" />
          </mxGeometry>
        </mxCell>
        <mxCell id="duQ5a-z2jA8PVYuKpQVg-49" value="https://auth-service.wstemplate.k8s-test.perit.hu/admin-gui&lt;br&gt;https://scalable-service.wstemplate.k8s-test.perit.hu/admin-gui&lt;br&gt;https://pgadmin.wstemplate.k8s-test.perit.hu" style="text;html=1;strokeColor=none;fillColor=none;align=left;verticalAlign=top;whiteSpace=wrap;rounded=0;" parent="duQ5a-z2jA8PVYuKpQVg-1" vertex="1">
          <mxGeometry x="-20" y="120" width="340" height="50" as="geometry" />
        </mxCell>
        <mxCell id="duQ5a-z2jA8PVYuKpQVg-51" value="https://auth-service.wstemplate.k8s-test.perit.hu/api/spvitamin/authenticate&lt;br&gt;https://scalable-service.wstemplate.k8s-test.perit.hu/api/service" style="text;html=1;strokeColor=none;fillColor=none;align=left;verticalAlign=top;whiteSpace=wrap;rounded=0;" parent="duQ5a-z2jA8PVYuKpQVg-1" vertex="1">
          <mxGeometry x="-20" y="380" width="430" height="40" as="geometry" />
        </mxCell>
      </root>
    </mxGraphModel>
  </diagram>
</mxfile>
